<svg xmlns="http://www.w3.org/2000/svg" width="187.437" height="244.026" viewBox="0 0 187.437 244.026">
  <g id="Group_1" data-name="Group 1" transform="translate(-643.665 -299.125)">
    <g id="Path_1" data-name="Path 1" transform="translate(604 339.385)" fill="none" stroke-linejoin="round">
      <path d="M78.356,203.766l56.355-6.945,58.037,6.945L225.552,0H39.665Z" stroke="none"/>
      <path d="M 186.0708160400391 194.909912109375 L 216.1608123779297 7.999995708465576 L 49.32686996459961 7.999995708465576 L 84.81742095947266 194.9092407226563 L 133.7325439453125 188.8812255859375 C 134.0574798583984 188.8411865234375 134.3842010498047 188.8211669921875 134.7109985351563 188.8211669921875 C 135.0283660888672 188.8211669921875 135.3458251953125 188.8400573730469 135.6615142822266 188.8778228759766 L 186.0708160400391 194.909912109375 M 192.7481079101563 203.7659912109375 L 134.7110137939453 196.8211669921875 L 78.35620880126953 203.7659912109375 L 39.66487503051758 -4.394531060825102e-06 L 225.5517120361328 -4.394531060825102e-06 L 192.7481079101563 203.7659912109375 Z" stroke="none" fill="#707070"/>
    </g>
    <g id="Path_2" data-name="Path 2" transform="translate(643.665 312.283)" fill="none">
      <path d="M0-.206,95.083-13.158,187.437-.206V22.5H0Z" stroke="none"/>
      <path d="M 95.06730651855469 -5.081632614135742 L 8.000015258789063 6.778562068939209 L 8.000015258789063 14.499755859375 L 179.4366912841797 14.499755859375 L 179.4366912841797 6.750776290893555 L 95.06730651855469 -5.081632614135742 M 95.08332061767578 -13.15768051147461 L 187.4366912841797 -0.2055559158325195 L 187.4366912841797 22.499755859375 L 1.52587890625e-05 22.499755859375 L 1.52587890625e-05 -0.2055559158325195 L 95.08332061767578 -13.15768051147461 Z" stroke="none" fill="#707070"/>
    </g>
  </g>
</svg>
