<svg width="134" height="93" viewBox="0 0 134 93" fill="none" xmlns="http://www.w3.org/2000/svg">
<rect x="2" y="2" width="130" height="89" rx="26" fill="#E9E24C" stroke="black" stroke-width="4"/>
<path d="M52.0577 53.7345C55.4405 56.7197 58.6822 64.4814 50.5635 71.646" stroke="black" stroke-width="4"/>
<line x1="3.49414" y1="24.8672" x2="40.1033" y2="24.8672" stroke="black" stroke-width="4"/>
<line x1="72.9775" y1="24.0531" x2="132" y2="24.0531" stroke="black" stroke-width="4"/>
<line x1="2.74707" y1="39.5221" x2="34.8735" y2="39.5221" stroke="black" stroke-width="4"/>
<line x1="66.2529" y1="39.5221" x2="132" y2="39.5221" stroke="black" stroke-width="4"/>
<line x1="2.74707" y1="54.177" x2="53.5516" y2="54.177" stroke="black" stroke-width="4"/>
<path d="M72.9775 56.177H132" stroke="black" stroke-width="4"/>
<line x1="2" y1="71.2743" x2="52.8046" y2="71.2743" stroke="black" stroke-width="4"/>
<line x1="74.4707" y1="71.2743" x2="130.505" y2="71.2743" stroke="black" stroke-width="4"/>
<path d="M33.0061 39.4867C32.508 44.7788 36.7413 55.7699 53.1781 54.1416" stroke="black" stroke-width="4"/>
<path d="M38.6088 24.8318C35.6203 26.8672 32.6322 32.5664 33.0053 39.0796" stroke="black" stroke-width="4"/>
<path d="M38.2356 0V26.8673M74.0977 0V26.0531" stroke="black" stroke-width="4"/>
<path d="M51.3102 71.646V92M76.3389 71.239V91.5929" stroke="black" stroke-width="4"/>
<path d="M74.4704 55.3628C72.3337 58.6195 69.8501 66.2726 75.9644 70.8318" stroke="black" stroke-width="4"/>
<path d="M67.7471 39.8938C71.4827 42.7434 77.1609 48.2796 74.4712 55.7699" stroke="black" stroke-width="4"/>
</svg>
