<svg width="309" height="44" viewBox="0 0 309 44" fill="none" xmlns="http://www.w3.org/2000/svg">
<path d="M28.472 30.248C28.472 31.24 28.296 31.976 27.944 32.456C27.592 32.936 27.032 33.4 26.264 33.848C25.816 34.104 25.256 34.36 24.584 34.616C23.912 34.84 23.176 35.032 22.376 35.192C21.576 35.384 20.728 35.528 19.832 35.624C18.968 35.72 18.104 35.768 17.24 35.768C14.936 35.768 12.776 35.464 10.76 34.856C8.744 34.216 6.984 33.272 5.48 32.024C4.008 30.744 2.84 29.16 1.976 27.272C1.112 25.384 0.68 23.192 0.68 20.696C0.68 18.072 1.144 15.784 2.072 13.832C3.032 11.88 4.28 10.264 5.816 8.984C7.384 7.672 9.16 6.696 11.144 6.056C13.16 5.416 15.224 5.096 17.336 5.096C20.376 5.096 22.776 5.592 24.536 6.584C26.328 7.544 27.224 8.808 27.224 10.376C27.224 11.208 27.016 11.928 26.6 12.536C26.184 13.144 25.704 13.624 25.16 13.976C24.36 13.496 23.352 13.032 22.136 12.584C20.952 12.104 19.608 11.864 18.104 11.864C15.416 11.864 13.272 12.632 11.672 14.168C10.104 15.704 9.32 17.832 9.32 20.552C9.32 22.024 9.528 23.304 9.944 24.392C10.392 25.448 10.984 26.328 11.72 27.032C12.456 27.704 13.304 28.216 14.264 28.568C15.224 28.888 16.248 29.048 17.336 29.048C18.04 29.048 18.664 28.984 19.208 28.856C19.752 28.728 20.168 28.584 20.456 28.424V23.912H15.32C15.128 23.56 14.936 23.096 14.744 22.52C14.584 21.944 14.504 21.336 14.504 20.696C14.504 19.544 14.76 18.712 15.272 18.2C15.816 17.688 16.504 17.432 17.336 17.432H25.448C26.408 17.432 27.144 17.704 27.656 18.248C28.2 18.76 28.472 19.496 28.472 20.456V30.248ZM41.531 34.952C41.211 35.048 40.699 35.144 39.995 35.24C39.323 35.336 38.619 35.384 37.883 35.384C37.179 35.384 36.539 35.336 35.963 35.24C35.419 35.144 34.955 34.952 34.571 34.664C34.187 34.376 33.883 33.992 33.659 33.512C33.467 33 33.371 32.344 33.371 31.544V17.144C33.371 16.408 33.499 15.784 33.755 15.272C34.043 14.728 34.443 14.248 34.955 13.832C35.467 13.416 36.091 13.048 36.827 12.728C37.595 12.376 38.411 12.072 39.275 11.816C40.139 11.56 41.035 11.368 41.963 11.24C42.891 11.08 43.819 11 44.747 11C46.283 11 47.499 11.304 48.395 11.912C49.291 12.488 49.739 13.448 49.739 14.792C49.739 15.24 49.675 15.688 49.547 16.136C49.419 16.552 49.259 16.936 49.067 17.288C48.395 17.288 47.707 17.32 47.003 17.384C46.299 17.448 45.611 17.544 44.939 17.672C44.267 17.8 43.627 17.944 43.019 18.104C42.443 18.232 41.947 18.392 41.531 18.584V34.952ZM62.3863 29.816C62.9303 29.816 63.5223 29.768 64.1623 29.672C64.8343 29.544 65.3303 29.384 65.6503 29.192V25.352L62.1943 25.64C61.2983 25.704 60.5623 25.896 59.9863 26.216C59.4103 26.536 59.1223 27.016 59.1223 27.656C59.1223 28.296 59.3623 28.824 59.8423 29.24C60.3543 29.624 61.2023 29.816 62.3863 29.816ZM62.0023 10.952C63.7303 10.952 65.2983 11.128 66.7063 11.48C68.1463 11.832 69.3623 12.376 70.3543 13.112C71.3783 13.816 72.1623 14.728 72.7063 15.848C73.2503 16.936 73.5223 18.232 73.5223 19.736V30.488C73.5223 31.32 73.2823 32.008 72.8023 32.552C72.3543 33.064 71.8103 33.512 71.1703 33.896C69.0903 35.144 66.1623 35.768 62.3863 35.768C60.6903 35.768 59.1543 35.608 57.7783 35.288C56.4343 34.968 55.2663 34.488 54.2743 33.848C53.3143 33.208 52.5623 32.392 52.0183 31.4C51.5063 30.408 51.2503 29.256 51.2503 27.944C51.2503 25.736 51.9063 24.04 53.2183 22.856C54.5303 21.672 56.5623 20.936 59.3143 20.648L65.6023 19.976V19.64C65.6023 18.712 65.1863 18.056 64.3543 17.672C63.5543 17.256 62.3863 17.048 60.8503 17.048C59.6343 17.048 58.4503 17.176 57.2983 17.432C56.1463 17.688 55.1063 18.008 54.1783 18.392C53.7623 18.104 53.4103 17.672 53.1223 17.096C52.8343 16.488 52.6903 15.864 52.6903 15.224C52.6903 14.392 52.8823 13.736 53.2663 13.256C53.6823 12.744 54.3063 12.312 55.1383 11.96C56.0663 11.608 57.1543 11.352 58.4023 11.192C59.6823 11.032 60.8823 10.952 62.0023 10.952ZM78.6076 3.752C78.9276 3.656 79.4396 3.56 80.1436 3.464C80.8476 3.336 81.5676 3.272 82.3036 3.272C83.0076 3.272 83.6316 3.32 84.1756 3.416C84.7516 3.512 85.2316 3.704 85.6156 3.992C85.9996 4.28 86.2876 4.68 86.4796 5.192C86.6716 5.672 86.7676 6.312 86.7676 7.112V11.816C87.5676 11.496 88.3196 11.272 89.0236 11.144C89.7596 11.016 90.5596 10.952 91.4236 10.952C92.9596 10.952 94.4156 11.224 95.7916 11.768C97.1676 12.312 98.3836 13.112 99.4396 14.168C100.496 15.192 101.328 16.472 101.936 18.008C102.544 19.544 102.848 21.32 102.848 23.336C102.848 25.416 102.528 27.24 101.888 28.808C101.28 30.344 100.416 31.624 99.2956 32.648C98.1756 33.672 96.7996 34.456 95.1676 35C93.5676 35.512 91.7916 35.768 89.8396 35.768C87.7276 35.768 85.9356 35.512 84.4636 35C82.9916 34.52 81.7436 33.912 80.7196 33.176C79.3116 32.184 78.6076 30.904 78.6076 29.336V3.752ZM89.8396 29.336C91.3116 29.336 92.4476 28.84 93.2476 27.848C94.0796 26.824 94.4956 25.32 94.4956 23.336C94.4956 21.32 94.0796 19.816 93.2476 18.824C92.4156 17.832 91.2956 17.336 89.8876 17.336C89.2476 17.336 88.6876 17.4 88.2076 17.528C87.7596 17.656 87.2636 17.848 86.7196 18.104V28.568C87.0716 28.792 87.4876 28.984 87.9676 29.144C88.4796 29.272 89.1036 29.336 89.8396 29.336ZM116.242 5.192C116.242 3.976 116.642 2.952 117.442 2.12C118.274 1.288 119.362 0.871999 120.706 0.871999C122.05 0.871999 123.122 1.288 123.922 2.12C124.754 2.952 125.17 3.976 125.17 5.192C125.17 6.408 124.754 7.432 123.922 8.264C123.122 9.096 122.05 9.512 120.706 9.512C119.362 9.512 118.274 9.096 117.442 8.264C116.642 7.432 116.242 6.408 116.242 5.192ZM124.786 34.952C124.434 35.016 123.906 35.096 123.202 35.192C122.53 35.32 121.842 35.384 121.138 35.384C120.434 35.384 119.794 35.336 119.218 35.24C118.674 35.144 118.21 34.952 117.826 34.664C117.442 34.376 117.138 33.992 116.914 33.512C116.722 33 116.626 32.344 116.626 31.544V12.008C116.978 11.944 117.49 11.864 118.162 11.768C118.866 11.64 119.57 11.576 120.273 11.576C120.978 11.576 121.602 11.624 122.146 11.72C122.722 11.816 123.202 12.008 123.586 12.296C123.97 12.584 124.258 12.984 124.45 13.496C124.674 13.976 124.786 14.616 124.786 15.416V34.952ZM138.14 26.984C138.14 27.816 138.396 28.408 138.908 28.76C139.452 29.112 140.204 29.288 141.164 29.288C141.644 29.288 142.14 29.256 142.652 29.192C143.164 29.096 143.612 28.984 143.996 28.856C144.284 29.208 144.524 29.608 144.716 30.056C144.94 30.472 145.052 30.984 145.052 31.592C145.052 32.808 144.588 33.8 143.66 34.568C142.764 35.336 141.164 35.72 138.86 35.72C136.044 35.72 133.868 35.08 132.332 33.8C130.828 32.52 130.076 30.44 130.076 27.56V7.016C130.428 6.92 130.924 6.824 131.564 6.728C132.236 6.6 132.94 6.536 133.676 6.536C135.084 6.536 136.172 6.792 136.94 7.304C137.74 7.784 138.14 8.824 138.14 10.424V13.496H144.428C144.62 13.848 144.796 14.296 144.956 14.84C145.148 15.352 145.244 15.928 145.244 16.568C145.244 17.688 144.988 18.504 144.476 19.016C143.996 19.496 143.34 19.736 142.508 19.736H138.14V26.984Z" fill="#DB5431"/>
<path d="M167.689 23.432C166.281 22.952 165.001 22.472 163.849 21.992C162.697 21.48 161.705 20.872 160.873 20.168C160.041 19.464 159.385 18.632 158.905 17.672C158.457 16.68 158.233 15.48 158.233 14.072C158.233 11.352 159.273 9.176 161.353 7.544C163.465 5.912 166.409 5.096 170.185 5.096C171.561 5.096 172.841 5.192 174.025 5.384C175.209 5.576 176.217 5.88 177.049 6.296C177.913 6.68 178.585 7.192 179.065 7.832C179.545 8.44 179.785 9.16 179.785 9.992C179.785 10.824 179.593 11.544 179.209 12.152C178.825 12.728 178.361 13.224 177.817 13.64C177.113 13.192 176.169 12.808 174.985 12.488C173.801 12.136 172.505 11.96 171.097 11.96C169.657 11.96 168.601 12.168 167.929 12.584C167.257 12.968 166.921 13.464 166.921 14.072C166.921 14.552 167.129 14.952 167.545 15.272C167.961 15.56 168.585 15.832 169.417 16.088L171.961 16.904C174.969 17.864 177.273 19.096 178.873 20.6C180.505 22.072 181.321 24.088 181.321 26.648C181.321 29.368 180.249 31.576 178.105 33.272C175.961 34.936 172.809 35.768 168.648 35.768C167.177 35.768 165.801 35.64 164.521 35.384C163.273 35.16 162.169 34.824 161.209 34.376C160.281 33.896 159.545 33.32 159.001 32.648C158.489 31.944 158.233 31.144 158.233 30.248C158.233 29.32 158.505 28.536 159.049 27.896C159.593 27.224 160.185 26.712 160.825 26.36C161.721 27.064 162.809 27.672 164.089 28.184C165.401 28.696 166.825 28.952 168.361 28.952C169.929 28.952 171.033 28.712 171.673 28.232C172.313 27.752 172.633 27.192 172.633 26.552C172.633 25.912 172.377 25.432 171.865 25.112C171.353 24.76 170.633 24.424 169.705 24.104L167.689 23.432ZM195.809 10.952C197.729 10.952 199.505 11.208 201.137 11.72C202.801 12.2 204.225 12.952 205.409 13.976C206.593 15 207.521 16.296 208.193 17.864C208.865 19.4 209.201 21.24 209.201 23.384C209.201 25.432 208.913 27.224 208.337 28.76C207.761 30.296 206.945 31.592 205.889 32.648C204.833 33.672 203.553 34.44 202.049 34.952C200.577 35.464 198.929 35.72 197.105 35.72C195.729 35.72 194.449 35.512 193.265 35.096V43.064C192.945 43.16 192.433 43.256 191.729 43.352C191.025 43.48 190.305 43.544 189.569 43.544C188.865 43.544 188.225 43.496 187.649 43.4C187.105 43.304 186.641 43.112 186.257 42.824C185.873 42.536 185.585 42.136 185.393 41.624C185.201 41.144 185.105 40.504 185.105 39.704V16.664C185.105 15.8 185.281 15.096 185.633 14.552C186.017 14.008 186.529 13.512 187.169 13.064C188.161 12.424 189.393 11.912 190.865 11.528C192.337 11.144 193.985 10.952 195.809 10.952ZM195.905 29.288C199.201 29.288 200.849 27.32 200.849 23.384C200.849 21.336 200.433 19.816 199.601 18.824C198.801 17.832 197.633 17.336 196.097 17.336C195.489 17.336 194.945 17.416 194.465 17.576C193.985 17.704 193.569 17.864 193.217 18.056V28.616C193.601 28.808 194.017 28.968 194.465 29.096C194.913 29.224 195.393 29.288 195.905 29.288ZM212.992 5.192C212.992 3.976 213.392 2.952 214.192 2.12C215.024 1.288 216.112 0.871999 217.456 0.871999C218.8 0.871999 219.872 1.288 220.672 2.12C221.504 2.952 221.92 3.976 221.92 5.192C221.92 6.408 221.504 7.432 220.672 8.264C219.872 9.096 218.8 9.512 217.456 9.512C216.112 9.512 215.024 9.096 214.192 8.264C213.392 7.432 212.992 6.408 212.992 5.192ZM221.536 34.952C221.184 35.016 220.656 35.096 219.952 35.192C219.28 35.32 218.592 35.384 217.888 35.384C217.184 35.384 216.544 35.336 215.968 35.24C215.424 35.144 214.96 34.952 214.576 34.664C214.192 34.376 213.888 33.992 213.664 33.512C213.472 33 213.376 32.344 213.376 31.544V12.008C213.728 11.944 214.24 11.864 214.912 11.768C215.616 11.64 216.32 11.576 217.023 11.576C217.728 11.576 218.352 11.624 218.896 11.72C219.472 11.816 219.952 12.008 220.336 12.296C220.72 12.584 221.008 12.984 221.2 13.496C221.424 13.976 221.536 14.616 221.536 15.416V34.952ZM239.882 17.384C239.082 17.384 238.314 17.512 237.578 17.768C236.874 18.024 236.25 18.408 235.706 18.92C235.194 19.4 234.778 20.008 234.458 20.744C234.138 21.48 233.978 22.344 233.978 23.336C233.978 25.32 234.538 26.808 235.658 27.8C236.81 28.792 238.202 29.288 239.834 29.288C240.794 29.288 241.626 29.176 242.33 28.952C243.034 28.728 243.658 28.488 244.202 28.232C244.842 28.68 245.322 29.176 245.642 29.72C245.962 30.232 246.122 30.856 246.122 31.592C246.122 32.904 245.498 33.928 244.25 34.664C243.002 35.368 241.274 35.72 239.066 35.72C237.05 35.72 235.226 35.432 233.594 34.856C231.962 34.248 230.554 33.416 229.37 32.36C228.218 31.272 227.322 29.976 226.682 28.472C226.042 26.968 225.722 25.304 225.722 23.48C225.722 21.368 226.058 19.528 226.73 17.96C227.434 16.36 228.378 15.048 229.562 14.024C230.746 13 232.106 12.232 233.642 11.72C235.21 11.208 236.858 10.952 238.586 10.952C240.89 10.952 242.666 11.368 243.914 12.2C245.162 13.032 245.786 14.104 245.786 15.416C245.786 16.024 245.642 16.6 245.354 17.144C245.066 17.656 244.73 18.104 244.346 18.488C243.802 18.232 243.146 17.992 242.378 17.768C241.61 17.512 240.778 17.384 239.882 17.384ZM261.848 35.768C259.96 35.768 258.2 35.512 256.568 35C254.968 34.456 253.56 33.656 252.344 32.6C251.16 31.544 250.216 30.216 249.512 28.616C248.84 27.016 248.504 25.144 248.504 23C248.504 20.888 248.84 19.08 249.512 17.576C250.216 16.04 251.128 14.792 252.248 13.832C253.368 12.84 254.648 12.12 256.088 11.672C257.528 11.192 259 10.952 260.504 10.952C262.2 10.952 263.736 11.208 265.112 11.72C266.52 12.232 267.72 12.936 268.712 13.832C269.736 14.728 270.52 15.8 271.064 17.048C271.64 18.296 271.928 19.656 271.928 21.128C271.928 22.216 271.624 23.048 271.016 23.624C270.408 24.2 269.56 24.568 268.472 24.728L256.616 26.504C256.968 27.56 257.688 28.36 258.776 28.904C259.864 29.416 261.112 29.672 262.52 29.672C263.832 29.672 265.064 29.512 266.216 29.192C267.4 28.84 268.36 28.44 269.096 27.992C269.608 28.312 270.04 28.76 270.392 29.336C270.744 29.912 270.92 30.52 270.92 31.16C270.92 32.6 270.248 33.672 268.904 34.376C267.88 34.92 266.728 35.288 265.448 35.48C264.168 35.672 262.968 35.768 261.848 35.768ZM260.504 16.904C259.736 16.904 259.064 17.032 258.488 17.288C257.944 17.544 257.496 17.88 257.144 18.296C256.792 18.68 256.52 19.128 256.328 19.64C256.168 20.12 256.072 20.616 256.04 21.128L264.248 19.784C264.152 19.144 263.8 18.504 263.192 17.864C262.584 17.224 261.688 16.904 260.504 16.904ZM295.535 28.04C295.535 30.472 294.623 32.376 292.799 33.752C290.975 35.128 288.287 35.816 284.735 35.816C283.391 35.816 282.143 35.72 280.991 35.528C279.839 35.336 278.847 35.048 278.015 34.664C277.215 34.248 276.575 33.736 276.095 33.128C275.647 32.52 275.423 31.8 275.423 30.968C275.423 30.2 275.583 29.56 275.903 29.048C276.223 28.504 276.607 28.056 277.055 27.704C277.983 28.216 279.039 28.68 280.223 29.096C281.439 29.48 282.831 29.672 284.399 29.672C285.391 29.672 286.143 29.528 286.655 29.24C287.199 28.952 287.471 28.568 287.471 28.088C287.471 27.64 287.279 27.288 286.895 27.032C286.511 26.776 285.871 26.568 284.975 26.408L283.535 26.12C280.751 25.576 278.671 24.728 277.295 23.576C275.951 22.392 275.279 20.712 275.279 18.536C275.279 17.352 275.535 16.28 276.047 15.32C276.559 14.36 277.279 13.56 278.207 12.92C279.135 12.28 280.239 11.784 281.519 11.432C282.831 11.08 284.271 10.904 285.839 10.904C287.023 10.904 288.127 11 289.151 11.192C290.207 11.352 291.119 11.608 291.887 11.96C292.655 12.312 293.263 12.776 293.711 13.352C294.159 13.896 294.383 14.552 294.383 15.32C294.383 16.056 294.239 16.696 293.951 17.24C293.695 17.752 293.359 18.184 292.943 18.536C292.687 18.376 292.303 18.216 291.791 18.056C291.279 17.864 290.719 17.704 290.111 17.576C289.503 17.416 288.879 17.288 288.239 17.192C287.631 17.096 287.071 17.048 286.559 17.048C285.503 17.048 284.687 17.176 284.111 17.432C283.535 17.656 283.247 18.024 283.247 18.536C283.247 18.888 283.407 19.176 283.727 19.4C284.047 19.624 284.655 19.832 285.551 20.024L287.039 20.36C290.111 21.064 292.287 22.04 293.567 23.288C294.879 24.504 295.535 26.088 295.535 28.04ZM308.36 7.16C308.36 7.896 308.344 8.968 308.312 10.376C308.28 11.752 308.216 13.256 308.12 14.888C308.024 16.488 307.896 18.104 307.736 19.736C307.576 21.336 307.384 22.728 307.16 23.912C307.032 24.008 306.84 24.104 306.584 24.2C306.328 24.296 306.056 24.376 305.768 24.44C305.48 24.504 305.192 24.552 304.904 24.584C304.616 24.616 304.36 24.632 304.136 24.632C303.208 24.632 302.424 24.488 301.784 24.2C301.176 23.912 300.792 23.352 300.632 22.52C300.472 21.784 300.328 20.664 300.2 19.16C300.104 17.656 300.008 16.024 299.912 14.264C299.816 12.504 299.736 10.76 299.672 9.032C299.64 7.304 299.624 5.832 299.624 4.616C300.264 4.264 300.984 3.992 301.784 3.8C302.616 3.576 303.432 3.464 304.232 3.464C305.544 3.464 306.552 3.768 307.256 4.376C307.992 4.984 308.36 5.912 308.36 7.16ZM299.528 31.352C299.528 30.04 299.928 28.968 300.728 28.136C301.56 27.272 302.696 26.84 304.136 26.84C305.576 26.84 306.696 27.272 307.496 28.136C308.328 28.968 308.744 30.04 308.744 31.352C308.744 32.664 308.328 33.752 307.496 34.616C306.696 35.448 305.576 35.864 304.136 35.864C302.696 35.864 301.56 35.448 300.728 34.616C299.928 33.752 299.528 32.664 299.528 31.352Z" fill="black"/>
</svg>
